<?xml version="1.0" standalone="no"?>
<!DOCTYPE svg PUBLIC "-//W3C//DTD SVG 20010904//EN"
 "http://www.w3.org/TR/2001/REC-SVG-20010904/DTD/svg10.dtd">
<svg version="1.0" xmlns="http://www.w3.org/2000/svg"
 width="512.000000pt" height="512.000000pt" viewBox="0 0 512.000000 512.000000"
 preserveAspectRatio="xMidYMid meet">
<metadata>
Created by potrace 1.14, written by Peter Selinger 2001-2017
</metadata>
<g transform="translate(0.000000,512.000000) scale(0.100000,-0.100000)"
fill="#000000" stroke="none">
<path d="M485 5109 c-16 -5 -40 -11 -53 -13 -44 -9 -137 -58 -197 -103 -107
-82 -176 -186 -214 -323 -20 -72 -21 -94 -18 -750 l2 -675 30 -44 c18 -27 48
-54 75 -67 45 -23 46 -23 490 -23 444 0 445 0 490 23 46 23 96 84 104 127 3
13 5 167 5 342 l1 317 380 0 380 0 2 -1892 3 -1893 24 -38 c13 -21 42 -50 64
-65 l41 -27 465 0 c447 0 467 1 496 20 94 61 105 94 105 320 0 208 -9 249 -65
301 -90 82 -241 63 -304 -39 -25 -40 -29 -62 -30 -144 l-1 -63 -200 0 -200 0
-2 1893 -3 1894 -27 39 c-15 21 -44 50 -65 64 l-37 25 -623 3 c-419 2 -637 -1
-663 -8 -50 -14 -116 -78 -130 -128 -6 -22 -10 -168 -10 -354 l0 -318 -200 0
-201 0 3 538 c3 517 4 538 23 567 26 39 43 57 80 81 29 19 67 19 2034 22 1373
1 2015 -1 2042 -8 49 -14 115 -79 129 -128 6 -23 10 -231 10 -554 l0 -518
-200 0 -200 0 0 328 c-1 321 -1 328 -24 372 -13 26 -41 58 -65 75 l-43 30
-636 2 c-627 2 -638 2 -680 -19 -26 -13 -55 -38 -75 -67 l-32 -46 -3 -593 c-2
-398 1 -606 8 -632 20 -74 109 -140 190 -140 79 0 169 65 189 137 7 24 11 210
11 501 l0 462 380 0 379 0 3 -339 3 -339 31 -43 c18 -24 52 -54 75 -66 44 -22
49 -22 489 -22 444 0 445 0 490 23 26 13 58 41 75 65 l30 43 2 677 c3 657 2
679 -18 751 -30 111 -74 185 -159 270 -85 86 -162 131 -272 160 -71 18 -137
19 -2113 19 -1204 -1 -2052 -5 -2070 -10z"/>
<path d="M2854 2409 c-38 -11 -100 -68 -115 -106 -25 -61 -21 -102 25 -273 85
-315 200 -707 211 -723 8 -12 279 -286 600 -608 570 -571 587 -588 668 -628
45 -23 111 -48 147 -55 88 -19 229 -13 310 13 184 58 335 210 392 396 31 100
31 254 1 350 -45 143 -58 157 -683 784 -322 322 -596 592 -610 598 -20 10
-582 185 -639 199 -9 2 -60 17 -115 34 -102 31 -139 35 -192 19z m553 -545
l188 -56 372 -372 373 -371 -142 -142 -142 -142 -367 368 -368 369 -51 189
c-28 103 -53 194 -55 201 -2 6 -2 12 0 12 3 0 89 -25 192 -56z m1287 -1166
c21 -33 29 -130 13 -166 -37 -83 -91 -123 -174 -128 -63 -4 -124 20 -166 64
l-27 28 142 142 142 142 26 -28 c15 -15 35 -39 44 -54z"/>
</g>
</svg>
